<?xml version="1.0" encoding="UTF-8" standalone="no"?>
<!-- Created with Inkscape (http://www.inkscape.org/) -->

<svg
   xmlns:dc="http://purl.org/dc/elements/1.1/"
   xmlns:cc="http://creativecommons.org/ns#"
   xmlns:rdf="http://www.w3.org/1999/02/22-rdf-syntax-ns#"
   xmlns:svg="http://www.w3.org/2000/svg"
   xmlns="http://www.w3.org/2000/svg"
   version="1.0"
   width="1600"
   height="600"
   id="svg2">
  <defs
     id="defs4" />
  <metadata
     id="metadata7">
    <rdf:RDF>
      <cc:Work
         rdf:about="">
        <dc:format>image/svg+xml</dc:format>
        <dc:type
           rdf:resource="http://purl.org/dc/dcmitype/StillImage" />
        <dc:title></dc:title>
      </cc:Work>
    </rdf:RDF>
  </metadata>
  <g
     id="layer1" />
  <g
     id="layer2" />
  <g
     id="layer3">
    <g
       id="g3057">
      <path
         d="m 30.591735,176.04605 89.581745,-0.50508 0.73547,259.37387 168.19822,0.0852 1.60715,-172.14286 -43.39285,-87.14285 173.03569,0 -41.25005,85 1.6072,172.85714 171.60714,0.625 126.60715,-258.66071 173.74997,-0.0893 130.73661,259.0067 86.45092,-0.99331 -0.692,-82.42187 82.1652,-85.99331 -85.692,-89.56473 88.5938,0.43527 87.8795,87.57813 -85.8008,85.85798 -1.5151,84.4294 259.1992,0.85798 -0.086,-127.71345 -87.2293,-82.71344 -0.8008,-48.42774 259.9135,-0.57059 -0.086,46.57227 -85,82.5 -1.6826,218.93802 -1468.439965,0 0,-347.17769 z"
         id="rect9164"
         style="fill:#005fff;fill-opacity:1;stroke:none" />
      <path
         d="m 30.304576,88.862812 0,434.365598 1470.782124,0 0,-218.19295 84.8528,-82.83251 0,-46.46702 -84.8528,-86.873118"
         id="path8183"
         style="fill:none;stroke:#000000;stroke-width:8;stroke-linecap:round;stroke-linejoin:miter;stroke-miterlimit:4;stroke-opacity:1;stroke-dasharray:none" />
      <path
         d="m 120,89.285714 0,346.428576 170.71429,0 0,-172.14286 L 205,90.88312"
         id="path8187"
         style="fill:none;stroke:#000000;stroke-width:8;stroke-linecap:round;stroke-linejoin:miter;stroke-miterlimit:4;stroke-opacity:1;stroke-dasharray:none" />
      <path
         d="m 463.57143,89.999999 -84.28572,172.857141 0,172.14286 172.85715,0 170,-344.11688"
         id="path8189"
         style="fill:none;stroke:#000000;stroke-width:8;stroke-linecap:round;stroke-linejoin:miter;stroke-miterlimit:4;stroke-opacity:1;stroke-dasharray:none" />
      <path
         d="M 811.42857,90.88312 982.14286,435 1070,435 l 0,-84.28571 83.5714,-86.42858 L 983.57143,90.88312"
         id="path8191"
         style="fill:none;stroke:#000000;stroke-width:8;stroke-linecap:round;stroke-linejoin:miter;stroke-miterlimit:4;stroke-opacity:1;stroke-dasharray:none" />
      <path
         d="m 1070.7143,91.428571 171.4286,172.857139 -87.1429,85 0,85.04927 259.2857,0 0,-128.62069 -87.8571,-82.14286 0,-47.14286 85.7143,-87.857142"
         id="path8193"
         style="fill:none;stroke:#000000;stroke-width:8;stroke-linecap:round;stroke-linejoin:miter;stroke-miterlimit:4;stroke-opacity:1;stroke-dasharray:none" />
    </g>
  </g>
</svg>
