<?xml version="1.0" encoding="UTF-8" standalone="no"?>
<!-- Created with Inkscape (http://www.inkscape.org/) -->

<svg
   xmlns:svg="http://www.w3.org/2000/svg"
   xmlns="http://www.w3.org/2000/svg"
   version="1.0"
   width="903.54327"
   height="301.18109"
   viewBox="-172.784 -61.414 903.54328 301.18109"
   id="Engstelle-Bernoulli"
   xml:space="preserve"><defs
   id="defs37" />
<path
   d="m 653.3132,20.538387 h -232.597 c -0.646,0 -1.288,0.049 -1.923,0.124 -14.912,1.269999 -29.893,16.690999 -40.483,20.971999 -10.887,4.401 -29.253,3.714 -36.263,3.714 h -145.03 c -7.009,0 -25.373,0.687 -36.26,-3.714 -10.594,-4.283 -25.573,-19.705 -40.488,-20.971999 -0.636,-0.075 -1.279,-0.124 -1.923,-0.124 h -232.594 c -17.984,0 -32.564,29.505999 -32.564,65.903999 0,36.397984 14.581,65.901984 32.564,65.901984 h 232.594 c 0.647,0 1.287,-0.049 1.923,-0.124 14.916,-1.268 29.894,-16.69 40.488,-20.972 10.887,-4.401 29.251,-3.715 36.26,-3.715 h 145.03 c 7.01,0 25.376,-0.687 36.263,3.715 10.591,4.283 25.571,19.702 40.483,20.972 0.635,0.075 1.277,0.124 1.923,0.124 h 232.597 c 17.984,0 32.566,-29.506 32.566,-65.901984 0,-36.396 -14.582,-65.903999 -32.566,-65.903999 l 0,0 z"
   id="path236"
   style="fill:#bbbaba" />
<g
   transform="translate(54.113529,18.312387)"
   id="g238">
	<polygon
   points="-33.897,30.131 -0.82,30.131 -0.82,44.184 42.495,26.451 -0.82,8.717 -0.82,22.776 -33.897,22.776 "
   id="polygon240"
   style="fill:#e36612" />
	<polygon
   points="-33.897,71.811 -0.82,71.811 -0.82,85.861 42.495,68.13 -0.82,50.399 -0.82,64.454 -33.897,64.454 "
   id="polygon242"
   style="fill:#e36612" />
	<polygon
   points="-33.897,113.486 -0.82,113.486 -0.82,127.541 42.495,109.806 -0.82,92.077 -0.82,106.132 -33.897,106.132 "
   id="polygon244"
   style="fill:#e36612" />
</g>
<g
   transform="translate(54.113529,18.312387)"
   id="g246">
	<polygon
   points="-122.428,30.131 -89.351,30.131 -89.351,44.184 -46.036,26.451 -89.351,8.717 -89.351,22.776 -122.428,22.776 "
   id="polygon248"
   style="fill:#e36612" />
	<polygon
   points="-122.428,71.811 -89.351,71.811 -89.351,85.861 -46.036,68.13 -89.351,50.399 -89.351,64.454 -122.428,64.454 "
   id="polygon250"
   style="fill:#e36612" />
	<polygon
   points="-122.428,113.486 -89.351,113.486 -89.351,127.541 -46.036,109.806 -89.351,92.077 -89.351,106.132 -122.428,106.132 "
   id="polygon252"
   style="fill:#e36612" />
</g>
<g
   transform="translate(54.113529,18.312387)"
   id="g254">
	<polygon
   points="471.868,30.131 504.946,30.131 504.946,44.184 548.257,26.451 504.946,8.717 504.946,22.776 471.868,22.776 "
   id="polygon256"
   style="fill:#e36612" />
	<polygon
   points="471.868,71.811 504.946,71.811 504.946,85.861 548.257,68.13 504.946,50.399 504.946,64.454 471.868,64.454 "
   id="polygon258"
   style="fill:#e36612" />
	<polygon
   points="471.868,113.486 504.946,113.486 504.946,127.541 548.257,109.806 504.946,92.077 504.946,106.132 471.868,106.132 "
   id="polygon260"
   style="fill:#e36612" />
</g>
<g
   transform="translate(54.113529,18.312387)"
   id="g262">
	<polygon
   points="383.337,30.131 416.416,30.131 416.416,44.184 459.727,26.451 416.416,8.717 416.416,22.776 383.337,22.776 "
   id="polygon264"
   style="fill:#e36612" />
	<polygon
   points="383.337,71.811 416.416,71.811 416.416,85.861 459.727,68.13 416.416,50.399 416.416,64.454 383.337,64.454 "
   id="polygon266"
   style="fill:#e36612" />
	<polygon
   points="383.337,113.486 416.416,113.486 416.416,127.541 459.727,109.806 416.416,92.077 416.416,106.132 383.337,106.132 "
   id="polygon268"
   style="fill:#e36612" />
</g>
<g
   transform="translate(54.113529,18.312387)"
   id="g270">
	<polygon
   points="142.9,50.557 285.665,50.557 285.665,57.056 305.698,48.852 285.665,40.652 285.665,47.152 142.9,47.152 "
   id="polygon272"
   style="fill:#e36612" />
	<polygon
   points="142.9,69.832 285.665,69.832 285.665,76.33 305.698,68.13 285.665,59.93 285.665,66.431 142.9,66.431 "
   id="polygon274"
   style="fill:#e36612" />
	<polygon
   points="142.9,89.11 285.665,89.11 285.665,95.608 305.698,87.407 285.665,79.205 285.665,85.706 142.9,85.706 "
   id="polygon276"
   style="fill:#e36612" />
</g>
<path
   d="m 132.4462,80.169386 c 14.916,0.255 29.895,3.344 40.488,4.204 10.887,0.882 29.251,0.746 36.26,0.746 h 145.029 c 7.011,0 25.375,0.137 36.262,-0.746 10.595,-0.858 25.571,-3.949 40.484,-4.204 0.638,-0.017 1.28,-0.026 1.926,-0.026 h 252.831 c -0.354,-7.486 -1.326,-14.603 -2.81,-21.149 h -252.585 c -0.646,0 -1.288,0.028 -1.923,0.066 -14.913,0.682 -29.894,8.943 -40.483,11.236 -10.887,2.36 -29.255,1.99 -36.263,1.99 h -145.031 c -7.009,0 -25.373,0.368 -36.26,-1.99 -10.594,-2.291 -25.573,-10.555 -40.488,-11.236 -0.635,-0.04 -1.279,-0.066 -1.922,-0.066 H -84.643801 c 1.484,6.546 2.457,13.663 2.809,21.149 H 130.5232 c 0.645,0 1.288,0.009 1.923,0.026 l 0,0 z"
   id="path278"
   style="opacity:0.45;fill:#ffffff" />
<path
   d="m 653.3092,152.34437 c -17.981,0 -32.563,-29.506 -32.563,-65.901984 0,-36.396 14.582,-65.901999 32.563,-65.901999"
   id="path280"
   style="fill:none;stroke:#ffffff;stroke-width:3;stroke-dasharray:2" />
<path
   d="M -81.796801,91.679386 H -146.6998 c 0.29,7.471988 1.192,14.587984 2.611,21.147984 h 59.678999 c 1.42,-6.56 2.323,-13.675996 2.613,-21.147984 z"
   id="path282"
   style="opacity:0.45;fill:#ffffff" />
<path
   d="m -114.2478,20.538387 c 17.983996,0 32.563999,29.505999 32.563999,65.901999 0,36.395984 -14.581003,65.899984 -32.563999,65.899984"
   id="path284"
   style="fill:none;stroke:#000000;stroke-width:3" />
<path
   d="m 653.3132,20.538387 h -232.597 c -0.646,0 -1.288,0.049 -1.923,0.124 -14.912,1.269999 -29.893,16.690999 -40.483,20.971999 -10.887,4.401 -29.253,3.714 -36.263,3.714 h -145.03 c -7.009,0 -25.373,0.687 -36.26,-3.714 -10.594,-4.283 -25.573,-19.705 -40.488,-20.971999 -0.636,-0.075 -1.279,-0.124 -1.923,-0.124 h -232.594 c -17.984,0 -32.564,29.505999 -32.564,65.903999 0,36.397984 14.581,65.901984 32.564,65.901984 h 232.594 c 0.647,0 1.287,-0.049 1.923,-0.124 14.916,-1.268 29.894,-16.69 40.488,-20.972 10.887,-4.401 29.251,-3.715 36.26,-3.715 h 145.03 c 7.01,0 25.376,-0.687 36.263,3.715 10.591,4.283 25.571,19.702 40.483,20.972 0.635,0.075 1.277,0.124 1.923,0.124 h 232.597 c 17.984,0 32.566,-29.506 32.566,-65.901984 0,-36.396 -14.582,-65.903999 -32.566,-65.903999 l 0,0 z"
   id="path286"
   style="fill:none;stroke:#000000;stroke-width:3" />
<text
   x="-57.206295"
   y="194.27249"
   id="text288"
   style="font-size:23.0734005px;font-family:Nimbus Sans L, Sans-Serif">Hoher Druck</text>

<text
   x="-153.7415"
   y="222.32224"
   id="text290"
   style="font-size:23.0734005px;font-family:Nimbus Sans L, Sans-Serif">Niedrige Fließgeschwindigkeit</text>

<text
   x="466.08859"
   y="194.27249"
   id="text292"
   style="font-size:23.0734005px;font-family:Nimbus Sans L, Sans-Serif">Hoher Druck</text>

<text
   x="369.5535"
   y="222.32224"
   id="text294"
   style="font-size:23.0734005px;font-family:Nimbus Sans L, Sans-Serif">Niedrige Fließgeschwindigkeit</text>

<text
   x="183.7722"
   y="-30.122143"
   id="text296"
   style="font-size:23.0734005px;font-family:Nimbus Sans L, Sans-Serif">Niedriger Druck</text>

<text
   x="121.86941"
   y="-2.0723386"
   id="text298"
   style="font-size:23.0734005px;font-family:Nimbus Sans L, Sans-Serif">Hohe Fließgeschwindigkeit</text>

</svg>