<?xml version="1.0" encoding="utf-8"?>
<!-- Generator: Adobe Illustrator 15.0.2, SVG Export Plug-In . SVG Version: 6.00 Build 0)  -->
<!DOCTYPE svg PUBLIC "-//W3C//DTD SVG 1.1//EN" "http://www.w3.org/Graphics/SVG/1.1/DTD/svg11.dtd">
<svg version="1.1" id="Ebene_1" xmlns="http://www.w3.org/2000/svg" xmlns:xlink="http://www.w3.org/1999/xlink" x="0px" y="0px"
	 width="595.28px" height="841.89px" viewBox="0 0 595.28 841.89" enable-background="new 0 0 595.28 841.89" xml:space="preserve">
<path fill="none" stroke="#E75294" stroke-width="4.0517" stroke-miterlimit="10" d="M100.037,427.609
	c0,0,49.584-1.748,83.673-13.993c34.089-12.242,56.058-42.719,58.881-68.207c3.099-27.982,16.527-182.759,83.672-215.988
	c80.305-39.742,191.705-45.133,191.705-45.133"/>
<g>
	<g>
		
			<line fill="none" stroke="#002F6B" stroke-width="4.3729" stroke-miterlimit="10" x1="98.419" y1="99.979" x2="98.419" y2="443.752"/>
		<g>
			<polygon fill="#002F6B" points="87.579,103.169 98.479,84.289 109.381,103.169 			"/>
		</g>
	</g>
</g>
<g>
	<g>
		
			<line fill="none" stroke="#002F6B" stroke-width="4.4037" stroke-miterlimit="10" x1="96.314" y1="443.752" x2="502.17" y2="443.752"/>
		<g>
			<polygon fill="#002F6B" points="498.957,454.668 517.971,443.691 498.957,432.713 			"/>
		</g>
	</g>
</g>
<g>
	<path fill="#002F6B" d="M446.447,465.871h-2.031l-1.938-6.812c-0.084-0.297-0.188-0.726-0.312-1.285s-0.201-0.949-0.227-1.168
		c-0.053,0.333-0.137,0.766-0.254,1.297s-0.215,0.927-0.293,1.188l-1.891,6.781h-2.031l-1.477-5.719l-1.5-5.703h1.906l1.633,6.656
		c0.254,1.067,0.438,2.011,0.547,2.828c0.057-0.442,0.143-0.938,0.258-1.484c0.113-0.547,0.219-0.989,0.312-1.328l1.859-6.672h1.852
		l1.906,6.703c0.182,0.62,0.375,1.547,0.578,2.781c0.078-0.745,0.266-1.692,0.562-2.844l1.625-6.641h1.891L446.447,465.871z"/>
	<path fill="#002F6B" d="M451.041,465.871v-11.422h1.867v11.422H451.041z"/>
	<path fill="#002F6B" d="M462.51,462.77c0,1.016-0.367,1.812-1.102,2.391s-1.748,0.867-3.039,0.867c-1.293,0-2.35-0.2-3.172-0.602
		v-1.766c0.52,0.245,1.074,0.438,1.66,0.578s1.131,0.211,1.637,0.211c0.738,0,1.285-0.141,1.637-0.422s0.527-0.659,0.527-1.133
		c0-0.427-0.162-0.789-0.484-1.086c-0.324-0.297-0.99-0.648-2-1.055c-1.043-0.422-1.777-0.903-2.203-1.445
		c-0.428-0.542-0.641-1.192-0.641-1.953c0-0.953,0.338-1.703,1.016-2.25c0.676-0.547,1.586-0.82,2.727-0.82
		c1.094,0,2.182,0.239,3.266,0.719l-0.594,1.523c-1.016-0.427-1.922-0.641-2.719-0.641c-0.605,0-1.062,0.132-1.375,0.395
		s-0.469,0.61-0.469,1.043c0,0.297,0.062,0.551,0.188,0.762s0.33,0.41,0.617,0.598c0.285,0.188,0.801,0.435,1.547,0.742
		c0.838,0.349,1.453,0.675,1.844,0.977s0.676,0.644,0.859,1.023C462.418,461.806,462.51,462.254,462.51,462.77z"/>
	<path fill="#002F6B" d="M471.307,462.77c0,1.016-0.367,1.812-1.102,2.391s-1.748,0.867-3.039,0.867c-1.293,0-2.35-0.2-3.172-0.602
		v-1.766c0.52,0.245,1.074,0.438,1.66,0.578s1.131,0.211,1.637,0.211c0.738,0,1.285-0.141,1.637-0.422s0.527-0.659,0.527-1.133
		c0-0.427-0.162-0.789-0.484-1.086c-0.324-0.297-0.99-0.648-2-1.055c-1.043-0.422-1.777-0.903-2.203-1.445
		c-0.428-0.542-0.641-1.192-0.641-1.953c0-0.953,0.338-1.703,1.016-2.25c0.676-0.547,1.586-0.82,2.727-0.82
		c1.094,0,2.182,0.239,3.266,0.719l-0.594,1.523c-1.016-0.427-1.922-0.641-2.719-0.641c-0.605,0-1.062,0.132-1.375,0.395
		s-0.469,0.61-0.469,1.043c0,0.297,0.062,0.551,0.188,0.762s0.33,0.41,0.617,0.598c0.285,0.188,0.801,0.435,1.547,0.742
		c0.838,0.349,1.453,0.675,1.844,0.977s0.676,0.644,0.859,1.023C471.215,461.806,471.307,462.254,471.307,462.77z"/>
	<path fill="#002F6B" d="M479.979,465.871h-6.461v-11.422h6.461v1.578h-4.594v3.109h4.305v1.562h-4.305v3.586h4.594V465.871z"/>
	<path fill="#002F6B" d="M491.963,465.871h-2.289l-5.617-9.102h-0.062l0.039,0.508c0.072,0.969,0.109,1.854,0.109,2.656v5.938
		h-1.695v-11.422h2.266l5.602,9.055h0.047c-0.012-0.12-0.031-0.556-0.062-1.309s-0.047-1.34-0.047-1.762v-5.984h1.711V465.871z"/>
</g>
<g>
	<path fill="#002F6B" d="M77.422,208.967v-1.938l11.422,4v1.969l-11.422,3.984v-1.922l7.102-2.383
		c0.339-0.125,0.774-0.258,1.309-0.398s0.931-0.231,1.191-0.273c-0.396-0.067-0.854-0.172-1.375-0.312s-0.906-0.255-1.156-0.344
		L77.422,208.967z"/>
	<path fill="#002F6B" d="M88.844,199.061v6.461H77.422v-6.461H79v4.594h3.109v-4.305h1.562v4.305h3.586v-4.594H88.844z"/>
	<path fill="#002F6B" d="M84.282,194.725h4.562v1.867H77.422v-3.227c0-1.474,0.276-2.565,0.828-3.273
		c0.552-0.708,1.386-1.062,2.5-1.062c1.422,0,2.435,0.74,3.039,2.219l5.055-3.227v2.125l-4.562,2.734V194.725z M82.735,194.725
		v-1.297c0-0.87-0.161-1.5-0.484-1.891s-0.802-0.586-1.438-0.586c-0.646,0-1.109,0.211-1.391,0.633S79,192.642,79,193.49v1.234
		H82.735z"/>
	<path fill="#002F6B" d="M85.743,179.779c1.016,0,1.812,0.367,2.391,1.102S89,182.628,89,183.92c0,1.292-0.2,2.349-0.602,3.172
		h-1.766c0.245-0.521,0.438-1.074,0.578-1.66s0.211-1.131,0.211-1.637c0-0.739-0.141-1.285-0.422-1.637s-0.659-0.527-1.133-0.527
		c-0.427,0-0.789,0.162-1.086,0.484c-0.297,0.323-0.648,0.99-1.055,2c-0.422,1.042-0.903,1.776-1.445,2.203
		c-0.542,0.427-1.192,0.641-1.953,0.641c-0.953,0-1.703-0.338-2.25-1.016c-0.547-0.677-0.82-1.586-0.82-2.727
		c0-1.094,0.239-2.182,0.719-3.266l1.523,0.594c-0.427,1.016-0.641,1.922-0.641,2.719c0,0.604,0.132,1.062,0.395,1.375
		s0.61,0.469,1.043,0.469c0.297,0,0.551-0.062,0.762-0.188s0.41-0.331,0.598-0.617c0.188-0.286,0.435-0.802,0.742-1.547
		c0.349-0.838,0.675-1.453,0.977-1.844s0.644-0.677,1.023-0.859C84.779,179.871,85.227,179.779,85.743,179.779z"/>
	<path fill="#002F6B" d="M88.844,173.623v1.867h-9.82v3.359h-1.602v-8.586h1.602v3.359H88.844z"/>
	<path fill="#002F6B" d="M75.274,164.115c-0.323,0-0.556-0.087-0.699-0.262c-0.144-0.174-0.215-0.387-0.215-0.637
		c0-0.276,0.081-0.497,0.242-0.664c0.161-0.167,0.386-0.25,0.672-0.25c0.281,0,0.504,0.086,0.668,0.258s0.246,0.391,0.246,0.656
		c0,0.25-0.075,0.462-0.227,0.637C75.81,164.028,75.582,164.115,75.274,164.115z M75.274,167.186c-0.323,0-0.556-0.087-0.699-0.262
		c-0.144-0.174-0.215-0.387-0.215-0.637c0-0.276,0.081-0.496,0.242-0.66s0.386-0.246,0.672-0.246c0.276,0,0.497,0.083,0.664,0.25
		c0.167,0.167,0.25,0.386,0.25,0.656c0,0.25-0.075,0.462-0.227,0.637C75.81,167.099,75.582,167.186,75.274,167.186z M88.844,161.428
		l-3.172,1.141v4.367l3.172,1.117v1.969l-11.469-4.273v-2.031l11.469-4.273V161.428z M84.063,163.061l-3.109,1.07
		c-0.208,0.078-0.536,0.187-0.984,0.324c-0.448,0.138-0.776,0.233-0.984,0.285c0.641,0.141,1.341,0.347,2.102,0.617l2.977,1.031
		V163.061z"/>
	<path fill="#002F6B" d="M88.844,148.42v2.289l-9.102,5.617v0.062l0.508-0.039c0.969-0.073,1.854-0.109,2.656-0.109h5.938v1.695
		H77.422v-2.266l9.055-5.602v-0.047c-0.12,0.011-0.556,0.031-1.309,0.062s-1.34,0.047-1.762,0.047h-5.984v-1.711H88.844z"/>
	<path fill="#002F6B" d="M83.024,136.115c1.886,0,3.327,0.523,4.324,1.57s1.496,2.555,1.496,4.523v3.195H77.422v-3.531
		c0-1.817,0.489-3.231,1.469-4.242C79.871,136.621,81.248,136.115,83.024,136.115z M83.086,138.084
		c-2.734,0-4.102,1.279-4.102,3.836v1.617h8.289v-1.328C87.274,139.459,85.878,138.084,83.086,138.084z"/>
	<path fill="#002F6B" d="M88.844,124.146v2.289l-9.102,5.617v0.062l0.508-0.039c0.969-0.073,1.854-0.109,2.656-0.109h5.938v1.695
		H77.422v-2.266l9.055-5.602v-0.047c-0.12,0.011-0.556,0.031-1.309,0.062s-1.34,0.047-1.762,0.047h-5.984v-1.711H88.844z"/>
	<path fill="#002F6B" d="M88.844,121.131H77.422v-1.867h11.422V121.131z"/>
	<path fill="#002F6B" d="M85.743,109.662c1.016,0,1.812,0.367,2.391,1.102S89,112.511,89,113.803c0,1.292-0.2,2.349-0.602,3.172
		h-1.766c0.245-0.521,0.438-1.074,0.578-1.66s0.211-1.131,0.211-1.637c0-0.739-0.141-1.285-0.422-1.637s-0.659-0.527-1.133-0.527
		c-0.427,0-0.789,0.162-1.086,0.484c-0.297,0.323-0.648,0.99-1.055,2c-0.422,1.042-0.903,1.776-1.445,2.203
		c-0.542,0.427-1.192,0.641-1.953,0.641c-0.953,0-1.703-0.338-2.25-1.016c-0.547-0.677-0.82-1.586-0.82-2.727
		c0-1.094,0.239-2.182,0.719-3.266l1.523,0.594c-0.427,1.016-0.641,1.922-0.641,2.719c0,0.604,0.132,1.062,0.395,1.375
		s0.61,0.469,1.043,0.469c0.297,0,0.551-0.062,0.762-0.188s0.41-0.331,0.598-0.617c0.188-0.286,0.435-0.802,0.742-1.547
		c0.349-0.838,0.675-1.453,0.977-1.844s0.644-0.677,1.023-0.859C84.779,109.753,85.227,109.662,85.743,109.662z"/>
</g>
<path fill="none" stroke="#002F6B" stroke-miterlimit="10" d="M552.757,490.395c0,3.131-2.538,5.67-5.669,5.67H48.189
	c-3.131,0-5.669-2.539-5.669-5.67V48.188c0-3.131,2.538-5.669,5.669-5.669h498.899c3.131,0,5.669,2.538,5.669,5.669V490.395z"/>
</svg>
