<?xml version="1.0" encoding="utf-8"?>
<!-- Generator: Adobe Illustrator 15.0.2, SVG Export Plug-In . SVG Version: 6.00 Build 0)  -->
<!DOCTYPE svg PUBLIC "-//W3C//DTD SVG 1.1//EN" "http://www.w3.org/Graphics/SVG/1.1/DTD/svg11.dtd">
<svg version="1.1" id="Ebene_1" xmlns="http://www.w3.org/2000/svg" xmlns:xlink="http://www.w3.org/1999/xlink" x="0px" y="0px"
	 width="595.28px" height="841.89px" viewBox="0 0 595.28 841.89" enable-background="new 0 0 595.28 841.89" xml:space="preserve">
<g>
	<g>
		<g>
			<g enable-background="new    ">
				<g>
					<polygon fill="#003A81" points="514.73,366.831 536.262,410.802 97.955,472.411 118.893,422.471 					"/>
				</g>
				<g>
					<polygon fill="#001D4D" points="97.955,472.411 58.604,451.005 79.542,401.064 118.893,422.471 					"/>
				</g>
				<g>
					<polygon fill="#002C66" points="118.893,422.471 79.542,401.064 475.38,345.425 514.73,366.831 					"/>
				</g>
			</g>
		</g>
	</g>
	<g>
		<g>
			<g enable-background="new    ">
				<g>
					<polygon fill="#443D81" points="493.513,312.945 512.897,357.226 120.455,412.389 140.016,362.633 					"/>
				</g>
				<g>
					<polygon fill="#271D4B" points="120.455,412.389 81.104,390.982 100.665,341.227 140.016,362.633 					"/>
				</g>
				<g>
					<polygon fill="#342D65" points="140.016,362.633 100.665,341.227 454.162,291.539 493.513,312.945 					"/>
				</g>
			</g>
		</g>
	</g>
	<g>
		<g>
			<g enable-background="new    ">
				<g>
					<polygon fill="#6D3F80" points="471.733,259.305 491.117,303.578 142.227,352.619 161.787,302.872 					"/>
				</g>
				<g>
					<polygon fill="#3F1E4A" points="142.227,352.619 102.875,331.213 122.436,281.466 161.787,302.872 					"/>
				</g>
				<g>
					<polygon fill="#552F65" points="161.787,302.872 122.436,281.466 432.383,237.899 471.733,259.305 					"/>
				</g>
			</g>
		</g>
	</g>
	<g>
		<g>
			<g enable-background="new    ">
				<g>
					<polygon fill="#8F4180" points="449.963,204.802 469.347,249.075 164.006,291.994 183.566,242.247 					"/>
				</g>
				<g>
					<polygon fill="#54204A" points="164.006,291.994 124.655,270.588 144.215,220.841 183.566,242.247 					"/>
				</g>
				<g>
					<polygon fill="#703164" points="183.566,242.247 144.215,220.841 410.611,183.396 449.963,204.802 					"/>
				</g>
			</g>
		</g>
	</g>
	<g>
		<g>
			<g enable-background="new    ">
				<g>
					<polygon fill="#AD4480" points="428.184,150.299 447.567,194.572 185.776,231.37 205.337,181.622 					"/>
				</g>
				<g>
					<polygon fill="#65224A" points="185.776,231.37 146.425,209.963 165.986,160.216 205.337,181.622 					"/>
				</g>
				<g>
					<polygon fill="#873364" points="205.337,181.622 165.986,160.216 388.832,128.893 428.184,150.299 					"/>
				</g>
			</g>
		</g>
	</g>
	<g>
		<g>
			<g enable-background="new    ">
				<g>
					<polygon fill="#C74781" points="407.942,95.571 425.788,140.069 207.556,170.744 226.347,121.097 					"/>
				</g>
				<g>
					<polygon fill="#732549" points="207.556,170.744 168.205,149.338 186.996,99.69 226.347,121.097 					"/>
				</g>
				<g>
					<polygon fill="#9B3665" points="226.347,121.097 186.996,99.69 368.591,74.165 407.942,95.571 					"/>
				</g>
			</g>
		</g>
	</g>
</g>
<g>
	<path fill="#FFFFFF" d="M277.835,148.14l-6.461,0.908v-11.422l6.461-0.908v1.578l-4.594,0.646v3.109l4.305-0.605v1.562
		l-4.305,0.605v3.586l4.594-0.646V148.14z"/>
	<path fill="#FFFFFF" d="M282.172,142.968v4.562l-1.868,0.262v-11.422l3.227-0.454c1.474-0.207,2.565-0.084,3.273,0.368
		c0.708,0.452,1.062,1.237,1.062,2.351c0,1.422-0.74,2.539-2.218,3.351l3.226,4.601l-2.125,0.299l-2.734-4.178L282.172,142.968z
		 M282.172,141.421l1.297-0.183c0.869-0.122,1.5-0.372,1.89-0.75c0.391-0.378,0.586-0.884,0.586-1.52
		c0-0.646-0.211-1.08-0.633-1.302c-0.422-0.222-1.058-0.273-1.907-0.154l-1.234,0.174V141.421z"/>
	<path fill="#FFFFFF" d="M297.117,142.328c0,1.016-0.367,1.864-1.102,2.545c-0.734,0.681-1.748,1.113-3.039,1.294
		c-1.292,0.182-2.349,0.13-3.172-0.156v-1.766c0.521,0.172,1.074,0.287,1.661,0.345c0.585,0.058,1.131,0.052,1.636-0.019
		c0.74-0.104,1.285-0.321,1.637-0.652c0.351-0.331,0.527-0.733,0.527-1.207c0-0.427-0.162-0.766-0.484-1.018
		c-0.323-0.251-0.989-0.509-2-0.773c-1.042-0.275-1.776-0.653-2.203-1.136c-0.427-0.482-0.641-1.102-0.641-1.863
		c0-0.953,0.339-1.751,1.016-2.393c0.677-0.642,1.586-1.043,2.727-1.203c1.094-0.154,2.182-0.067,3.266,0.26l-0.594,1.606
		c-1.015-0.284-1.922-0.37-2.719-0.258c-0.604,0.085-1.062,0.281-1.374,0.588c-0.313,0.307-0.469,0.676-0.469,1.109
		c0,0.297,0.062,0.542,0.188,0.735c0.125,0.193,0.331,0.363,0.617,0.511s0.802,0.322,1.547,0.525
		c0.838,0.231,1.453,0.471,1.843,0.717c0.391,0.247,0.677,0.549,0.859,0.903C297.026,141.377,297.117,141.812,297.117,142.328z"/>
	<path fill="#FFFFFF" d="M304.188,134.452c-1.072,0.151-1.918,0.649-2.531,1.497c-0.615,0.847-0.922,1.939-0.922,3.278
		c0,1.401,0.295,2.419,0.887,3.055c0.59,0.636,1.445,0.875,2.566,0.717c0.484-0.068,0.953-0.182,1.406-0.342
		c0.453-0.161,0.924-0.35,1.412-0.57v1.602c-0.895,0.465-1.91,0.776-3.045,0.936c-1.672,0.235-2.957-0.091-3.852-0.978
		c-0.896-0.887-1.344-2.273-1.344-4.159c0-1.188,0.216-2.257,0.652-3.209c0.434-0.952,1.062-1.723,1.887-2.312
		c0.822-0.589,1.789-0.962,2.898-1.118c1.166-0.164,2.244-0.07,3.234,0.28l-0.672,1.649c-0.387-0.128-0.793-0.231-1.223-0.309
		C305.113,134.391,304.66,134.385,304.188,134.452z"/>
	<path fill="#FFFFFF" d="M318.477,142.428l-1.875,0.264v-5.148l-5.266,0.74v5.148l-1.867,0.262v-11.422l1.867-0.262v4.672
		l5.266-0.74v-4.672l1.875-0.264V142.428z"/>
	<path fill="#FFFFFF" d="M328.57,141.009l-1.141-3.011l-4.367,0.614l-1.117,3.329l-1.969,0.277l4.273-12.069l2.031-0.286
		l4.273,10.868L328.57,141.009z M326.938,136.458l-1.07-2.959c-0.078-0.197-0.186-0.51-0.324-0.939
		c-0.139-0.429-0.234-0.744-0.285-0.944c-0.141,0.66-0.348,1.389-0.617,2.188l-1.031,3.122L326.938,136.458z"/>
	<path fill="#FFFFFF" d="M333.914,140.258l-1.852,0.26v-11.422l6.445-0.906v1.578l-4.594,0.646v3.57l4.305-0.605v1.586l-4.305,0.605
		V140.258z"/>
	<path fill="#FFFFFF" d="M342.43,139.062l-1.852,0.26V127.9l6.445-0.906v1.578l-4.594,0.646v3.57l4.305-0.605v1.586l-4.305,0.605
		V139.062z"/>
	<path fill="#FFFFFF" d="M355.555,137.217l-6.461,0.908v-11.422l6.461-0.908v1.578l-4.594,0.646v3.109l4.305-0.605v1.562
		l-4.305,0.605v3.586l4.594-0.646V137.217z"/>
	<path fill="#FFFFFF" d="M367.539,135.533l-2.289,0.322l-5.617-8.312l-0.062,0.009l0.039,0.502c0.072,0.958,0.109,1.839,0.109,2.641
		v5.938l-1.695,0.238v-11.422l2.266-0.318l5.602,8.268l0.047-0.007c-0.01-0.119-0.031-0.551-0.062-1.3s-0.047-1.333-0.047-1.755
		v-5.984l1.711-0.241V135.533z"/>
	<path fill="#FFFFFF" d="M278.816,193.116l3.391-0.477c1.573-0.221,2.709-0.151,3.411,0.208c0.7,0.359,1.05,1.035,1.05,2.024
		c0,0.667-0.172,1.246-0.515,1.736c-0.344,0.491-0.839,0.84-1.485,1.045v0.078c0.802,0.039,1.392,0.253,1.77,0.646
		c0.377,0.393,0.566,0.968,0.566,1.729c0,1.026-0.358,1.879-1.074,2.561c-0.717,0.682-1.713,1.112-2.988,1.291l-4.125,0.58V193.116z
		 M280.684,197.572l1.796-0.252c0.782-0.11,1.352-0.314,1.711-0.612c0.36-0.297,0.54-0.744,0.54-1.337
		c0-0.536-0.194-0.897-0.582-1.082c-0.388-0.185-1.004-0.218-1.848-0.1l-1.617,0.227V197.572z M280.684,199.088v3.617l1.984-0.279
		c0.781-0.11,1.371-0.342,1.77-0.698c0.398-0.356,0.598-0.856,0.598-1.502c0-0.594-0.203-1.006-0.609-1.235
		s-1.024-0.286-1.852-0.169L280.684,199.088z"/>
	<path fill="#FFFFFF" d="M295.839,202.146l-6.461,0.908v-11.422l6.461-0.908v1.578l-4.594,0.646v3.109l4.304-0.605v1.562
		l-4.304,0.605v3.586l4.594-0.646V202.146z"/>
	<path fill="#FFFFFF" d="M308.848,200.317l-2.031,0.285l-1.938-6.54c-0.084-0.285-0.188-0.699-0.312-1.241s-0.201-0.921-0.227-1.136
		c-0.053,0.34-0.137,0.785-0.254,1.332c-0.117,0.548-0.215,0.957-0.293,1.229l-1.891,7.047l-2.031,0.286l-1.477-5.512l-1.5-5.492
		l1.906-0.268l1.633,6.427c0.254,1.031,0.438,1.949,0.547,2.751c0.057-0.45,0.143-0.958,0.258-1.521
		c0.113-0.563,0.219-1.02,0.312-1.372l1.859-6.933l1.852-0.26l1.906,6.436c0.182,0.594,0.375,1.494,0.578,2.7
		c0.078-0.756,0.266-1.73,0.562-2.923l1.625-6.869l1.891-0.266L308.848,200.317z"/>
	<path fill="#FFFFFF" d="M319.902,198.764l-6.461,0.908V188.25l6.461-0.908v1.578l-4.594,0.646v3.109l4.305-0.605v1.562
		l-4.305,0.605v3.586l4.594-0.646V198.764z"/>
	<path fill="#FFFFFF" d="M324.238,193.592v4.562l-1.867,0.263v-11.422l3.227-0.454c1.475-0.207,2.564-0.084,3.273,0.368
		c0.707,0.452,1.062,1.236,1.062,2.351c0,1.422-0.74,2.539-2.219,3.351l3.227,4.601l-2.125,0.298l-2.734-4.178L324.238,193.592z
		 M324.238,192.045l1.297-0.182c0.869-0.122,1.5-0.372,1.891-0.75c0.391-0.378,0.586-0.884,0.586-1.52
		c0-0.646-0.211-1.08-0.633-1.302c-0.422-0.222-1.059-0.273-1.906-0.154l-1.234,0.173V192.045z"/>
	<path fill="#FFFFFF" d="M336.543,196.425l-1.867,0.262v-9.82l-3.359,0.472v-1.602l8.586-1.207v1.602l-3.359,0.472V196.425z"/>
	<path fill="#FFFFFF" d="M348.113,194.799l-6.461,0.908v-11.422l6.461-0.908v1.578l-4.594,0.646v3.109l4.305-0.605v1.562
		l-4.305,0.605v3.586l4.594-0.646V194.799z"/>
	<path fill="#FFFFFF" d="M360.098,193.115l-2.289,0.322l-5.617-8.312l-0.062,0.009l0.039,0.502c0.072,0.958,0.109,1.839,0.109,2.641
		v5.938l-1.695,0.238V183.03l2.266-0.318l5.602,8.268l0.047-0.007c-0.012-0.119-0.031-0.551-0.062-1.3s-0.047-1.333-0.047-1.755
		v-5.984l1.711-0.241V193.115z"/>
	<path fill="#FFFFFF" d="M274.988,261.613l-1.141-3.011l-4.367,0.614l-1.117,3.329l-1.969,0.277l4.273-12.069l2.031-0.286
		l4.273,10.868L274.988,261.613z M273.355,257.062l-1.07-2.959c-0.078-0.197-0.186-0.51-0.324-0.939
		c-0.138-0.429-0.233-0.744-0.285-0.944c-0.14,0.66-0.346,1.389-0.617,2.188l-1.031,3.122L273.355,257.062z"/>
	<path fill="#FFFFFF" d="M287.995,259.785l-2.289,0.321l-5.618-8.312l-0.062,0.009l0.039,0.502c0.073,0.958,0.109,1.839,0.109,2.641
		v5.938l-1.695,0.238V249.7l2.266-0.318l5.602,8.268l0.047-0.007c-0.011-0.118-0.031-0.551-0.063-1.299
		c-0.031-0.749-0.046-1.333-0.046-1.755v-5.984l1.71-0.24V259.785z"/>
	<path fill="#FFFFFF" d="M298.098,258.365l-1.141-3.012l-4.367,0.614l-1.117,3.329l-1.969,0.277l4.273-12.069l2.031-0.286
		l4.274,10.868L298.098,258.365z M296.465,253.813l-1.07-2.959c-0.078-0.197-0.186-0.51-0.324-0.939
		c-0.138-0.429-0.233-0.744-0.285-0.944c-0.14,0.66-0.346,1.389-0.617,2.188l-1.031,3.122L296.465,253.813z"/>
	<path fill="#FFFFFF" d="M301.59,257.875v-11.422l1.867-0.262v9.82l4.836-0.68v1.602L301.59,257.875z"/>
	<path fill="#FFFFFF" d="M313.488,249.991l2.703-5.591l2.031-0.285l-3.805,7.527v4.43l-1.875,0.263v-4.367l-3.789-6.522l2.029-0.286
		L313.488,249.991z"/>
	<path fill="#FFFFFF" d="M326.316,251.298c0,1.016-0.367,1.864-1.102,2.545s-1.748,1.113-3.039,1.294s-2.35,0.13-3.172-0.156v-1.766
		c0.52,0.172,1.074,0.287,1.66,0.345s1.133,0.052,1.637-0.019c0.74-0.104,1.285-0.321,1.637-0.652
		c0.352-0.33,0.527-0.733,0.527-1.207c0-0.427-0.162-0.767-0.484-1.018s-0.988-0.509-2-0.773c-1.041-0.275-1.775-0.654-2.203-1.136
		s-0.641-1.103-0.641-1.863c0-0.953,0.338-1.75,1.016-2.393c0.676-0.642,1.586-1.043,2.727-1.204
		c1.094-0.154,2.182-0.067,3.266,0.26l-0.594,1.606c-1.016-0.284-1.922-0.37-2.719-0.258c-0.604,0.085-1.062,0.281-1.375,0.587
		c-0.312,0.307-0.469,0.677-0.469,1.109c0,0.297,0.062,0.542,0.188,0.735s0.332,0.363,0.617,0.511
		c0.287,0.147,0.803,0.322,1.547,0.524c0.84,0.231,1.453,0.471,1.844,0.718s0.678,0.548,0.859,0.902
		C326.225,250.347,326.316,250.782,326.316,251.298z"/>
	<path fill="#FFFFFF" d="M328.527,254.089v-11.422l1.867-0.263v11.422L328.527,254.089z"/>
	<path fill="#FFFFFF" d="M339.871,252.495l-6.461,0.908V241.98l6.461-0.908v1.578l-4.594,0.646v3.109l4.305-0.605v1.562
		l-4.305,0.605v3.586l4.594-0.646V252.495z"/>
	<path fill="#FFFFFF" d="M344.207,247.323v4.562l-1.867,0.262v-11.422l3.227-0.453c1.475-0.208,2.564-0.084,3.273,0.368
		c0.707,0.453,1.062,1.237,1.062,2.351c0,1.422-0.74,2.538-2.219,3.351l3.227,4.602l-2.125,0.298l-2.734-4.178L344.207,247.323z
		 M344.207,245.776l1.297-0.182c0.869-0.123,1.5-0.372,1.891-0.75c0.391-0.378,0.586-0.884,0.586-1.52
		c0-0.646-0.211-1.08-0.633-1.302s-1.059-0.273-1.906-0.154l-1.234,0.173V245.776z"/>
	<path fill="#FFFFFF" d="M359.027,249.802l-6.461,0.908v-11.422l6.461-0.908v1.578l-4.594,0.646v3.109l4.305-0.605v1.562
		l-4.305,0.605v3.586l4.594-0.646V249.802z"/>
	<path fill="#FFFFFF" d="M371.012,248.118l-2.289,0.321l-5.617-8.312l-0.062,0.008l0.039,0.502c0.072,0.958,0.109,1.839,0.109,2.641
		v5.938l-1.695,0.238v-11.422l2.266-0.319l5.602,8.268l0.047-0.006c-0.01-0.119-0.031-0.551-0.062-1.3s-0.047-1.333-0.047-1.755
		v-5.984l1.711-0.24V248.118z"/>
	<path fill="#FFFFFF" d="M281.597,317.22l-1.141-3.011l-4.367,0.613l-1.117,3.329l-1.969,0.277l4.273-12.069l2.031-0.286
		l4.273,10.868L281.597,317.22z M279.964,312.668l-1.07-2.959c-0.078-0.197-0.186-0.51-0.324-0.939
		c-0.138-0.429-0.233-0.743-0.285-0.944c-0.14,0.66-0.346,1.389-0.617,2.188l-1.031,3.122L279.964,312.668z"/>
	<path fill="#FFFFFF" d="M294.604,315.393l-2.289,0.321l-5.618-8.312l-0.062,0.009l0.039,0.502c0.073,0.958,0.109,1.839,0.109,2.641
		v5.938l-1.695,0.238v-11.422l2.266-0.318l5.602,8.268l0.047-0.007c-0.011-0.118-0.031-0.551-0.063-1.3
		c-0.031-0.749-0.046-1.333-0.046-1.755v-5.984l1.71-0.24V315.393z"/>
	<path fill="#FFFFFF" d="M308.16,313.487l-2.031,0.285l-1.938-6.54c-0.084-0.285-0.188-0.699-0.312-1.241s-0.201-0.921-0.227-1.136
		c-0.053,0.34-0.137,0.785-0.254,1.333s-0.215,0.957-0.293,1.229l-1.891,7.047l-2.031,0.286l-1.477-5.512l-1.5-5.492l1.906-0.268
		l1.633,6.427c0.254,1.031,0.438,1.949,0.547,2.751c0.057-0.45,0.143-0.958,0.258-1.521c0.113-0.563,0.219-1.02,0.312-1.372
		l1.859-6.933l1.852-0.26l1.906,6.436c0.182,0.594,0.375,1.494,0.578,2.7c0.078-0.756,0.266-1.73,0.562-2.923l1.625-6.869
		l1.891-0.266L308.16,313.487z"/>
	<path fill="#FFFFFF" d="M319.215,311.934l-6.461,0.908V301.42l6.461-0.908v1.578l-4.594,0.646v3.109l4.305-0.604v1.562
		l-4.305,0.604v3.586l4.594-0.646V311.934z"/>
	<path fill="#FFFFFF" d="M331.199,310.25l-2.289,0.322l-5.617-8.312l-0.062,0.009l0.039,0.502c0.072,0.958,0.109,1.839,0.109,2.641
		v5.938l-1.695,0.238v-11.422l2.266-0.318l5.602,8.267l0.047-0.006c-0.012-0.119-0.031-0.552-0.062-1.3
		c-0.031-0.749-0.047-1.333-0.047-1.755v-5.984l1.711-0.24V310.25z"/>
	<path fill="#FFFFFF" d="M343.504,302.7c0,1.886-0.523,3.401-1.57,4.545c-1.047,1.145-2.555,1.855-4.523,2.132l-3.195,0.449v-11.422
		l3.531-0.497c1.816-0.255,3.232,0.035,4.24,0.873C342.998,299.618,343.504,300.923,343.504,302.7z M341.535,303.039
		c0-2.734-1.279-3.922-3.836-3.562l-1.617,0.228v8.289l1.328-0.187C340.16,307.42,341.535,305.831,341.535,303.039z"/>
	<path fill="#FFFFFF" d="M352.418,307.268l-6.461,0.908v-11.422l6.461-0.908v1.578l-4.594,0.646v3.109l4.303-0.605v1.562
		l-4.303,0.605v3.586l4.594-0.646V307.268z"/>
	<path fill="#FFFFFF" d="M364.402,305.583l-2.289,0.322l-5.617-8.312l-0.062,0.009l0.039,0.502c0.072,0.958,0.109,1.839,0.109,2.641
		v5.938l-1.695,0.238v-11.422l2.266-0.318l5.602,8.268l0.047-0.007c-0.012-0.119-0.031-0.551-0.062-1.3s-0.047-1.333-0.047-1.755
		v-5.984l1.711-0.241V305.583z"/>
	<path fill="#FFFFFF" d="M282.789,362.167l1.937-0.272l-4,11.984l-1.969,0.276l-3.984-10.862l1.921-0.27l2.383,6.767
		c0.125,0.321,0.258,0.738,0.398,1.253c0.141,0.514,0.232,0.898,0.273,1.153c0.068-0.405,0.172-0.878,0.312-1.419
		c0.141-0.541,0.255-0.942,0.344-1.205L282.789,362.167z"/>
	<path fill="#FFFFFF" d="M292.694,372.197l-6.461,0.908v-11.422l6.461-0.908v1.578l-4.594,0.646v3.109l4.305-0.605v1.562
		l-4.305,0.605v3.586l4.594-0.646V372.197z"/>
	<path fill="#FFFFFF" d="M297.031,367.025v4.562l-1.868,0.262v-11.422l3.227-0.453c1.473-0.207,2.565-0.084,3.274,0.368
		c0.707,0.452,1.062,1.236,1.062,2.351c0,1.422-0.74,2.539-2.219,3.351l3.225,4.602l-2.123,0.299l-2.734-4.179L297.031,367.025z
		 M297.031,365.478l1.297-0.182c0.87-0.122,1.5-0.372,1.891-0.75c0.391-0.378,0.586-0.884,0.586-1.52
		c0-0.646-0.211-1.08-0.633-1.302c-0.424-0.222-1.059-0.273-1.907-0.154l-1.234,0.173V365.478z"/>
	<path fill="#FFFFFF" d="M311.975,366.386c0,1.016-0.365,1.864-1.1,2.545c-0.734,0.681-1.748,1.113-3.039,1.294
		c-1.293,0.182-2.35,0.13-3.172-0.156v-1.766c0.52,0.172,1.074,0.287,1.66,0.345c0.584,0.059,1.131,0.052,1.637-0.019
		c0.738-0.104,1.285-0.321,1.637-0.652s0.527-0.733,0.527-1.207c0-0.427-0.162-0.766-0.484-1.018c-0.324-0.251-0.99-0.51-2-0.773
		c-1.041-0.276-1.777-0.654-2.203-1.136c-0.428-0.482-0.641-1.103-0.641-1.863c0-0.953,0.338-1.751,1.014-2.393
		c0.678-0.642,1.588-1.043,2.729-1.204c1.094-0.154,2.182-0.067,3.266,0.26l-0.594,1.607c-1.016-0.284-1.924-0.371-2.719-0.259
		c-0.604,0.085-1.062,0.281-1.375,0.588c-0.314,0.307-0.469,0.676-0.469,1.109c0,0.297,0.061,0.542,0.188,0.735
		c0.125,0.193,0.33,0.364,0.617,0.511c0.285,0.147,0.801,0.322,1.547,0.524c0.838,0.231,1.453,0.471,1.844,0.718
		c0.391,0.247,0.676,0.548,0.859,0.902C311.885,365.435,311.975,365.87,311.975,366.386z"/>
	<path fill="#FFFFFF" d="M318.133,368.622l-1.867,0.262v-9.82l-3.359,0.472v-1.602l8.586-1.207v1.602l-3.359,0.473V368.622z"/>
	<path fill="#FFFFFF" d="M329.703,366.996l-6.461,0.908v-11.422l6.461-0.908v1.578l-4.594,0.646v3.109l4.305-0.605v1.562
		l-4.305,0.605v3.586l4.594-0.646V366.996z"/>
	<path fill="#FFFFFF" d="M341.18,365.383l-1.875,0.264v-5.148l-5.266,0.74v5.148l-1.867,0.263v-11.422l1.867-0.263v4.672l5.266-0.74
		v-4.672l1.875-0.264V365.383z"/>
	<path fill="#FFFFFF" d="M350.648,364.052l-6.461,0.908v-11.422l6.461-0.908v1.578l-4.594,0.646v3.109l4.305-0.605v1.562
		l-4.305,0.605v3.586l4.594-0.646V364.052z"/>
	<path fill="#FFFFFF" d="M362.633,362.368l-2.289,0.321l-5.619-8.312l-0.061,0.009l0.039,0.502c0.072,0.958,0.107,1.839,0.107,2.641
		v5.938l-1.693,0.238v-11.422l2.266-0.318l5.6,8.268l0.049-0.007c-0.012-0.118-0.031-0.551-0.062-1.299s-0.047-1.333-0.047-1.755
		v-5.984l1.711-0.24V362.368z"/>
	<path fill="#FFFFFF" d="M287.03,429.53l-6.461,0.908v-11.422l6.461-0.908v1.578l-4.594,0.646v3.109l4.305-0.605v1.562l-4.305,0.605
		v3.586l4.594-0.646V429.53z"/>
	<path fill="#FFFFFF" d="M291.367,424.358v4.562l-1.868,0.262v-11.421l3.227-0.454c1.474-0.207,2.565-0.084,3.273,0.368
		c0.708,0.452,1.062,1.236,1.062,2.351c0,1.422-0.74,2.538-2.218,3.351l3.226,4.602l-2.125,0.299l-2.734-4.179L291.367,424.358z
		 M291.367,422.811l1.297-0.182c0.869-0.122,1.5-0.372,1.89-0.75c0.391-0.378,0.586-0.884,0.586-1.52
		c0-0.646-0.211-1.08-0.633-1.302c-0.422-0.222-1.058-0.273-1.907-0.154l-1.234,0.173V422.811z"/>
	<path fill="#FFFFFF" d="M299.727,427.746v-11.422l1.867-0.262v11.422L299.727,427.746z"/>
	<path fill="#FFFFFF" d="M314.125,425.723l-2.289,0.321l-5.619-8.312l-0.061,0.009l0.039,0.502c0.072,0.958,0.109,1.839,0.109,2.641
		v5.938l-1.695,0.238v-11.422l2.266-0.318l5.6,8.268l0.049-0.007c-0.012-0.118-0.031-0.551-0.062-1.3
		c-0.031-0.749-0.047-1.333-0.047-1.755v-5.984l1.711-0.241V425.723z"/>
	<path fill="#FFFFFF" d="M326.656,423.961l-2.289,0.322l-5.619-8.312l-0.061,0.009l0.039,0.502c0.072,0.958,0.107,1.839,0.107,2.641
		v5.938l-1.695,0.238v-11.422l2.268-0.318l5.6,8.268l0.049-0.007c-0.012-0.119-0.031-0.551-0.064-1.299
		c-0.029-0.749-0.045-1.333-0.045-1.755v-5.984l1.711-0.241V423.961z"/>
	<path fill="#FFFFFF" d="M336.131,422.629l-6.461,0.908v-11.422l6.461-0.908v1.578l-4.592,0.646v3.109l4.303-0.605v1.562
		l-4.303,0.605v3.586l4.592-0.646V422.629z"/>
	<path fill="#FFFFFF" d="M340.469,417.458v4.562l-1.867,0.263V410.86l3.227-0.453c1.473-0.208,2.564-0.084,3.273,0.368
		c0.707,0.453,1.061,1.237,1.061,2.351c0,1.422-0.738,2.539-2.217,3.351l3.225,4.602l-2.123,0.298l-2.734-4.178L340.469,417.458z
		 M340.469,415.911l1.297-0.182c0.869-0.122,1.5-0.372,1.891-0.75c0.391-0.378,0.586-0.884,0.586-1.52
		c0-0.646-0.211-1.08-0.633-1.302c-0.424-0.222-1.059-0.273-1.908-0.154l-1.232,0.173V415.911z"/>
	<path fill="#FFFFFF" d="M358.344,419.508l-2.289,0.322l-5.619-8.312l-0.061,0.009l0.039,0.502c0.072,0.959,0.109,1.839,0.109,2.641
		v5.938l-1.695,0.238v-11.422l2.266-0.318l5.602,8.267l0.047-0.006c-0.012-0.119-0.031-0.551-0.062-1.3s-0.047-1.333-0.047-1.755
		v-5.984l1.711-0.24V419.508z"/>
</g>
<path fill="none" stroke="#002F6B" stroke-miterlimit="10" d="M552.756,490.395c0,3.131-2.537,5.67-5.668,5.67H48.189
	c-3.131,0-5.669-2.539-5.669-5.67V48.188c0-3.131,2.538-5.669,5.669-5.669h498.899c3.131,0,5.668,2.538,5.668,5.669V490.395z"/>
</svg>
