<?xml version="1.0" encoding="UTF-8"?>
<svg version="1.0" width="620" height="590" xmlns="http://www.w3.org/2000/svg">
 <path stroke="#000" stroke-width="1.5" fill="none" d="M10,40 C60,47.8361 110,55.6722 160,61.2132 C210,66.7542 260,70 310,70 C360,70 410,66.7542 460,61.2132 C510,55.6722 560,47.8361 610,40 M10,40 C60,32.1639 110,24.3278 160,18.7868 C210,13.2458 260,10 310,10 C360,10 410,13.2458 460,18.7868 C510,24.3278 560,32.1639 610,40"/>
 <path stroke="#000" stroke-width="1.5" fill="none" d="M10,125 C35,132.053 60,139.105 85,144.092 C110,149.079 135,152 160,152 C185,152 210,149.079 235,144.092 C260,139.105 285,132.053 310,125 C335,117.947 360,110.895 385,105.908 C410,100.921 435,98 460,98 C485,98 510,100.921 535,105.908 C560,110.895 585,117.947 610,125 M10,125 C35,117.947 60,110.895 85,105.908 C110,100.921 135,98 160,98 C185,98 210,100.921 235,105.908 C260,110.895 285,117.947 310,125 C335,132.053 360,139.105 385,144.092 C410,149.079 435,152 460,152 C485,152 510,149.079 535,144.092 C560,139.105 585,132.053 610,125"/>
 <path stroke="#000" stroke-width="1.5" fill="none" d="M10,210 C26.6667,216.269 43.3333,222.538 60,226.971 C76.6667,231.403 93.3333,234 110,234 C126.667,234 143.333,231.403 160,226.971 C176.667,222.538 193.333,216.269 210,210 C226.667,203.731 243.333,197.462 260,193.029 C276.667,188.597 293.333,186 310,186 C326.667,186 343.333,188.597 360,193.029 C376.667,197.462 393.333,203.731 410,210 C426.667,216.269 443.333,222.538 460,226.971 C476.667,231.403 493.333,234 510,234 C526.667,234 543.333,231.403 560,226.971 C576.667,222.538 593.333,216.269 610,210 M10,210 C26.6667,203.731 43.3333,197.462 60,193.029 C76.6667,188.597 93.3333,186 110,186 C126.667,186 143.333,188.597 160,193.029 C176.667,197.462 193.333,203.731 210,210 C226.667,216.269 243.333,222.538 260,226.971 C276.667,231.403 293.333,234 310,234 C326.667,234 343.333,231.403 360,226.971 C376.667,222.538 393.333,216.269 410,210 C426.667,203.731 443.333,197.462 460,193.029 C476.667,188.597 493.333,186 510,186 C526.667,186 543.333,188.597 560,193.029 C576.667,197.462 593.333,203.731 610,210"/>
 <path stroke="#000" stroke-width="1.5" fill="none" d="M10,295 C22.5,300.485 35,305.971 47.5,309.849 C60,313.728 72.5,316 85,316 C97.5,316 110,313.728 122.5,309.849 C135,305.971 147.5,300.485 160,295 C172.5,289.515 185,284.029 197.5,280.151 C210,276.272 222.5,274 235,274 C247.5,274 260,276.272 272.5,280.151 C285,284.029 297.5,289.515 310,295 C322.5,300.485 335,305.971 347.5,309.849 C360,313.728 372.5,316 385,316 C397.5,316 410,313.728 422.5,309.849 C435,305.971 447.5,300.485 460,295 C472.5,289.515 485,284.029 497.5,280.151 C510,276.272 522.5,274 535,274 C547.5,274 560,276.272 572.5,280.151 C585,284.029 597.5,289.515 610,295 M10,295 C22.5,289.515 35,284.029 47.5,280.151 C60,276.272 72.5,274 85,274 C97.5,274 110,276.272 122.5,280.151 C135,284.029 147.5,289.515 160,295 C172.5,300.485 185,305.971 197.5,309.849 C210,313.728 222.5,316 235,316 C247.5,316 260,313.728 272.5,309.849 C285,305.971 297.5,300.485 310,295 C322.5,289.515 335,284.029 347.5,280.151 C360,276.272 372.5,274 385,274 C397.5,274 410,276.272 422.5,280.151 C435,284.029 447.5,289.515 460,295 C472.5,300.485 485,305.971 497.5,309.849 C510,313.728 522.5,316 535,316 C547.5,316 560,313.728 572.5,309.849 C585,305.971 597.5,300.485 610,295"/>
 <path stroke="#000" stroke-width="1.5" fill="none" d="M10,380 C20,384.702 30,389.403 40,392.728 C50,396.053 60,398 70,398 C80,398 90,396.053 100,392.728 C110,389.403 120,384.702 130,380 C140,375.298 150,370.597 160,367.272 C170,363.947 180,362 190,362 C200,362 210,363.947 220,367.272 C230,370.597 240,375.298 250,380 C260,384.702 270,389.403 280,392.728 C290,396.053 300,398 310,398 C320,398 330,396.053 340,392.728 C350,389.403 360,384.702 370,380 C380,375.298 390,370.597 400,367.272 C410,363.947 420,362 430,362 C440,362 450,363.947 460,367.272 C470,370.597 480,375.298 490,380 C500,384.702 510,389.403 520,392.728 C530,396.053 540,398 550,398 C560,398 570,396.053 580,392.728 C590,389.403 600,384.702 610,380 M10,380 C20,375.298 30,370.597 40,367.272 C50,363.947 60,362 70,362 C80,362 90,363.947 100,367.272 C110,370.597 120,375.298 130,380 C140,384.702 150,389.403 160,392.728 C170,396.053 180,398 190,398 C200,398 210,396.053 220,392.728 C230,389.403 240,384.702 250,380 C260,375.298 270,370.597 280,367.272 C290,363.947 300,362 310,362 C320,362 330,363.947 340,367.272 C350,370.597 360,375.298 370,380 C380,384.702 390,389.403 400,392.728 C410,396.053 420,398 430,398 C440,398 450,396.053 460,392.728 C470,389.403 480,384.702 490,380 C500,375.298 510,370.597 520,367.272 C530,363.947 540,362 550,362 C560,362 570,363.947 580,367.272 C590,370.597 600,375.298 610,380"/>
 <path stroke="#000" stroke-width="1.5" fill="none" d="M10,465 C18.3333,468.918 26.6667,472.836 35,475.607 C43.3333,478.377 51.6667,480 60,480 C68.3333,480 76.6667,478.377 85,475.607 C93.3333,472.836 101.667,468.918 110,465 C118.333,461.082 126.667,457.164 135,454.393 C143.333,451.623 151.667,450 160,450 C168.333,450 176.667,451.623 185,454.393 C193.333,457.164 201.667,461.082 210,465 C218.333,468.918 226.667,472.836 235,475.607 C243.333,478.377 251.667,480 260,480 C268.333,480 276.667,478.377 285,475.607 C293.333,472.836 301.667,468.918 310,465 C318.333,461.082 326.667,457.164 335,454.393 C343.333,451.623 351.667,450 360,450 C368.333,450 376.667,451.623 385,454.393 C393.333,457.164 401.667,461.082 410,465 C418.333,468.918 426.667,472.836 435,475.607 C443.333,478.377 451.667,480 460,480 C468.333,480 476.667,478.377 485,475.607 C493.333,472.836 501.667,468.918 510,465 C518.333,461.082 526.667,457.164 535,454.393 C543.333,451.623 551.667,450 560,450 C568.333,450 576.667,451.623 585,454.393 C593.333,457.164 601.667,461.082 610,465 M10,465 C18.3333,461.082 26.6667,457.164 35,454.393 C43.3333,451.623 51.6667,450 60,450 C68.3333,450 76.6667,451.623 85,454.393 C93.3333,457.164 101.667,461.082 110,465 C118.333,468.918 126.667,472.836 135,475.607 C143.333,478.377 151.667,480 160,480 C168.333,480 176.667,478.377 185,475.607 C193.333,472.836 201.667,468.918 210,465 C218.333,461.082 226.667,457.164 235,454.393 C243.333,451.623 251.667,450 260,450 C268.333,450 276.667,451.623 285,454.393 C293.333,457.164 301.667,461.082 310,465 C318.333,468.918 326.667,472.836 335,475.607 C343.333,478.377 351.667,480 360,480 C368.333,480 376.667,478.377 385,475.607 C393.333,472.836 401.667,468.918 410,465 C418.333,461.082 426.667,457.164 435,454.393 C443.333,451.623 451.667,450 460,450 C468.333,450 476.667,451.623 485,454.393 C493.333,457.164 501.667,461.082 510,465 C518.333,468.918 526.667,472.836 535,475.607 C543.333,478.377 551.667,480 560,480 C568.333,480 576.667,478.377 585,475.607 C593.333,472.836 601.667,468.918 610,465"/>
 <path stroke="#000" stroke-width="1.5" fill="none" d="M10,550 C17.1429,553.134 24.2857,556.269 31.4286,558.485 C38.5714,560.702 45.7143,562 52.8571,562 C60,562 67.1429,560.702 74.2857,558.485 C81.4286,556.269 88.5714,553.134 95.7143,550 C102.857,546.866 110,543.731 117.143,541.515 C124.286,539.298 131.429,538 138.571,538 C145.714,538 152.857,539.298 160,541.515 C167.143,543.731 174.286,546.866 181.429,550 C188.571,553.134 195.714,556.269 202.857,558.485 C210,560.702 217.143,562 224.286,562 C231.429,562 238.571,560.702 245.714,558.485 C252.857,556.269 260,553.134 267.143,550 C274.286,546.866 281.429,543.731 288.571,541.515 C295.714,539.298 302.857,538 310,538 C317.143,538 324.286,539.298 331.429,541.515 C338.571,543.731 345.714,546.866 352.857,550 C360,553.134 367.143,556.269 374.286,558.485 C381.429,560.702 388.571,562 395.714,562 C402.857,562 410,560.702 417.143,558.485 C424.286,556.269 431.429,553.134 438.571,550 C445.714,546.866 452.857,543.731 460,541.515 C467.143,539.298 474.286,538 481.429,538 C488.571,538 495.714,539.298 502.857,541.515 C510,543.731 517.143,546.866 524.286,550 C531.429,553.134 538.571,556.269 545.714,558.485 C552.857,560.702 560,562 567.143,562 C574.286,562 581.429,560.702 588.571,558.485 C595.714,556.269 602.857,553.134 610,550 M10,550 C17.1429,546.866 24.2857,543.731 31.4286,541.515 C38.5714,539.298 45.7143,538 52.8571,538 C60,538 67.1429,539.298 74.2857,541.515 C81.4286,543.731 88.5714,546.866 95.7143,550 C102.857,553.134 110,556.269 117.143,558.485 C124.286,560.702 131.429,562 138.571,562 C145.714,562 152.857,560.702 160,558.485 C167.143,556.269 174.286,553.134 181.429,550 C188.571,546.866 195.714,543.731 202.857,541.515 C210,539.298 217.143,538 224.286,538 C231.429,538 238.571,539.298 245.714,541.515 C252.857,543.731 260,546.866 267.143,550 C274.286,553.134 281.429,556.269 288.571,558.485 C295.714,560.702 302.857,562 310,562 C317.143,562 324.286,560.702 331.429,558.485 C338.571,556.269 345.714,553.134 352.857,550 C360,546.866 367.143,543.731 374.286,541.515 C381.429,539.298 388.571,538 395.714,538 C402.857,538 410,539.298 417.143,541.515 C424.286,543.731 431.429,546.866 438.571,550 C445.714,553.134 452.857,556.269 460,558.485 C467.143,560.702 474.286,562 481.429,562 C488.571,562 495.714,560.702 502.857,558.485 C510,556.269 517.143,553.134 524.286,550 C531.429,546.866 538.571,543.731 545.714,541.515 C552.857,539.298 560,538 567.143,538 C574.286,538 581.429,539.298 588.571,541.515 C595.714,543.731 602.857,546.866 610,550"/>
 <g stroke="#000" fill="#bbb">
  <circle cx="310" cy="131" r="6"/>
  <circle cx="210" cy="216" r="6"/>
  <circle cx="160" cy="301" r="6"/>
  <circle cx="130" cy="386" r="6"/>
  <circle cx="110" cy="471" r="6"/>
  <circle cx="95.714285714286" cy="556" r="6"/>
 </g>
 <g font-family="Bitstream Vera Sans" font-size="20px" text-anchor="middle">
  <text x="15" y="30">0</text>
  <text x="605" y="30">1</text>
  <text x="310" y="115">1/2</text>
  <text x="210" y="200">1/3</text>
  <text x="160" y="285">1/4</text>
  <text x="130" y="370">1/5</text>
  <text x="110" y="455">1/6</text>
  <text x="95.714285714286" y="540">1/7</text>
 </g>
</svg>
